<svg width="501" height="501" viewBox="0 0 501 501" fill="none" xmlns="http://www.w3.org/2000/svg">
<path d="M501 251C501 184.696 474.661 121.107 427.777 74.2233C380.893 27.3392 317.304 1.00001 251 1C184.696 0.999995 121.107 27.3392 74.2233 74.2233C27.3392 121.107 1.00001 184.696 1 251L251 251H501Z" fill="#D9D9D9"/>
<path d="M251.513 250.5H1.01346C-2.58654 171.7 46 101.5 76.5135 72L251.513 250.5Z" fill="#FF0000"/>
<path d="M251 251L500.811 250.499C504.415 171.699 455.768 101.5 425.217 72L251 251Z" fill="#009306"/>
<path d="M251.5 1.00684V250.507C197.167 195.007 86.1 81.6068 76.5 72.0068C105.5 45.0007 161.5 1.00609 251.5 1.00684Z" fill="#FF8C05"/>
<path d="M251 1V250.5C305.333 195 416.4 81.6 426 72C397 44.9939 341 0.999257 251 1Z" fill="#FFE600"/>
<path d="M377 251C377 217.848 363.83 186.054 340.388 162.612C316.946 139.17 285.152 126 252 126C218.848 126 187.054 139.17 163.612 162.612C140.17 186.054 127 217.848 127 251L252 251H377Z" fill="white"/>
<path d="M54.5495 186V177.273H57.9927C58.6547 177.273 59.2186 177.399 59.6845 177.652C60.1504 177.902 60.5055 178.25 60.7498 178.696C60.997 179.139 61.1206 179.651 61.1206 180.23C61.1206 180.81 60.9956 181.321 60.7456 181.764C60.4956 182.207 60.1333 182.553 59.6589 182.8C59.1873 183.047 58.6163 183.17 57.9458 183.17H55.7512V181.692H57.6475C58.0027 181.692 58.2953 181.631 58.5254 181.509C58.7583 181.384 58.9316 181.212 59.0453 180.993C59.1618 180.771 59.22 180.517 59.22 180.23C59.22 179.94 59.1618 179.687 59.0453 179.472C58.9316 179.253 58.7583 179.084 58.5254 178.964C58.2924 178.842 57.997 178.781 57.639 178.781H56.3947V186H54.5495ZM70.339 181.636C70.339 182.588 70.1586 183.398 69.7978 184.065C69.4398 184.733 68.9512 185.243 68.3319 185.595C67.7154 185.945 67.0222 186.119 66.2523 186.119C65.4767 186.119 64.7807 185.943 64.1642 185.591C63.5478 185.239 63.0605 184.729 62.7026 184.061C62.3446 183.393 62.1657 182.585 62.1657 181.636C62.1657 180.685 62.3446 179.875 62.7026 179.207C63.0605 178.54 63.5478 178.031 64.1642 177.682C64.7807 177.33 65.4767 177.153 66.2523 177.153C67.0222 177.153 67.7154 177.33 68.3319 177.682C68.9512 178.031 69.4398 178.54 69.7978 179.207C70.1586 179.875 70.339 180.685 70.339 181.636ZM68.4682 181.636C68.4682 181.02 68.3759 180.5 68.1912 180.077C68.0094 179.653 67.7523 179.332 67.4199 179.114C67.0875 178.895 66.6983 178.786 66.2523 178.786C65.8063 178.786 65.4171 178.895 65.0847 179.114C64.7523 179.332 64.4938 179.653 64.3091 180.077C64.1273 180.5 64.0364 181.02 64.0364 181.636C64.0364 182.253 64.1273 182.773 64.3091 183.196C64.4938 183.619 64.7523 183.94 65.0847 184.159C65.4171 184.378 65.8063 184.487 66.2523 184.487C66.6983 184.487 67.0875 184.378 67.4199 184.159C67.7523 183.94 68.0094 183.619 68.1912 183.196C68.3759 182.773 68.4682 182.253 68.4682 181.636ZM79.7257 181.636C79.7257 182.588 79.5453 183.398 79.1845 184.065C78.8265 184.733 78.3379 185.243 77.7186 185.595C77.1021 185.945 76.4089 186.119 75.639 186.119C74.8635 186.119 74.1674 185.943 73.551 185.591C72.9345 185.239 72.4473 184.729 72.0893 184.061C71.7314 183.393 71.5524 182.585 71.5524 181.636C71.5524 180.685 71.7314 179.875 72.0893 179.207C72.4473 178.54 72.9345 178.031 73.551 177.682C74.1674 177.33 74.8635 177.153 75.639 177.153C76.4089 177.153 77.1021 177.33 77.7186 177.682C78.3379 178.031 78.8265 178.54 79.1845 179.207C79.5453 179.875 79.7257 180.685 79.7257 181.636ZM77.8549 181.636C77.8549 181.02 77.7626 180.5 77.5779 180.077C77.3961 179.653 77.139 179.332 76.8066 179.114C76.4743 178.895 76.085 178.786 75.639 178.786C75.193 178.786 74.8038 178.895 74.4714 179.114C74.139 179.332 73.8805 179.653 73.6958 180.077C73.514 180.5 73.4231 181.02 73.4231 181.636C73.4231 182.253 73.514 182.773 73.6958 183.196C73.8805 183.619 74.139 183.94 74.4714 184.159C74.8038 184.378 75.193 184.487 75.639 184.487C76.085 184.487 76.4743 184.378 76.8066 184.159C77.139 183.94 77.3961 183.619 77.5779 183.196C77.7626 182.773 77.8549 182.253 77.8549 181.636ZM81.0925 186V177.273H84.5357C85.1948 177.273 85.7573 177.391 86.2232 177.626C86.6919 177.859 87.0485 178.19 87.2928 178.619C87.54 179.045 87.6635 179.547 87.6635 180.124C87.6635 180.703 87.5385 181.202 87.2885 181.619C87.0385 182.034 86.6763 182.352 86.2019 182.574C85.7303 182.795 85.1593 182.906 84.4888 182.906H82.1834V181.423H84.1905C84.5428 181.423 84.8354 181.375 85.0684 181.278C85.3013 181.182 85.4746 181.037 85.5882 180.844C85.7047 180.651 85.763 180.411 85.763 180.124C85.763 179.834 85.7047 179.589 85.5882 179.391C85.4746 179.192 85.2999 179.041 85.0641 178.939C84.8311 178.834 84.5371 178.781 84.182 178.781H82.9377V186H81.0925ZM85.8056 182.028L87.9746 186H85.9377L83.8155 182.028H85.8056Z" fill="black"/>
<path d="M170.719 84V75.2727H176.498V76.794H172.565V78.8736H176.114V80.3949H172.565V84H170.719ZM179.489 84.1236C179.072 84.1236 178.7 84.0511 178.373 83.9062C178.046 83.7585 177.788 83.5412 177.597 83.2543C177.41 82.9645 177.316 82.6037 177.316 82.1719C177.316 81.8082 177.383 81.5028 177.516 81.2557C177.65 81.0085 177.832 80.8097 178.062 80.6591C178.292 80.5085 178.553 80.3949 178.846 80.3182C179.141 80.2415 179.451 80.1875 179.775 80.1562C180.156 80.1165 180.462 80.0795 180.695 80.0455C180.928 80.0085 181.097 79.9545 181.202 79.8835C181.308 79.8125 181.36 79.7074 181.36 79.5682V79.5426C181.36 79.2727 181.275 79.0639 181.104 78.9162C180.937 78.7685 180.698 78.6946 180.388 78.6946C180.062 78.6946 179.802 78.767 179.609 78.9119C179.415 79.054 179.288 79.233 179.225 79.4489L177.546 79.3125C177.631 78.9148 177.799 78.571 178.049 78.2812C178.299 77.9886 178.621 77.7642 179.016 77.608C179.414 77.4489 179.874 77.3693 180.397 77.3693C180.761 77.3693 181.109 77.4119 181.441 77.4972C181.776 77.5824 182.073 77.7145 182.332 77.8935C182.593 78.0724 182.799 78.3026 182.95 78.5838C183.1 78.8622 183.175 79.196 183.175 79.5852V84H181.454V83.0923H181.403C181.298 83.2969 181.157 83.4773 180.981 83.6335C180.805 83.7869 180.593 83.9077 180.346 83.9957C180.099 84.081 179.813 84.1236 179.489 84.1236ZM180.009 82.8707C180.276 82.8707 180.512 82.8182 180.717 82.7131C180.921 82.6051 181.082 82.4602 181.198 82.2784C181.315 82.0966 181.373 81.8906 181.373 81.6605V80.9659C181.316 81.0028 181.238 81.0369 181.138 81.0682C181.042 81.0966 180.933 81.1236 180.81 81.1491C180.688 81.1719 180.566 81.1932 180.444 81.2131C180.322 81.2301 180.211 81.2457 180.112 81.2599C179.898 81.2912 179.712 81.3409 179.553 81.4091C179.394 81.4773 179.271 81.5696 179.183 81.6861C179.094 81.7997 179.05 81.9418 179.05 82.1122C179.05 82.3594 179.14 82.5483 179.319 82.679C179.501 82.8068 179.731 82.8707 180.009 82.8707ZM184.584 84V77.4545H186.399V84H184.584ZM185.496 76.6108C185.226 76.6108 184.994 76.5213 184.801 76.3423C184.611 76.1605 184.516 75.9432 184.516 75.6903C184.516 75.4403 184.611 75.2259 184.801 75.0469C184.994 74.8651 185.226 74.7741 185.496 74.7741C185.766 74.7741 185.996 74.8651 186.186 75.0469C186.379 75.2259 186.476 75.4403 186.476 75.6903C186.476 75.9432 186.379 76.1605 186.186 76.3423C185.996 76.5213 185.766 76.6108 185.496 76.6108ZM187.853 84V77.4545H189.613V78.5966H189.681C189.801 78.1903 190.001 77.8835 190.282 77.6761C190.564 77.4659 190.887 77.3608 191.254 77.3608C191.345 77.3608 191.443 77.3665 191.548 77.3778C191.653 77.3892 191.745 77.4048 191.825 77.4247V79.0355C191.74 79.0099 191.622 78.9872 191.471 78.9673C191.321 78.9474 191.183 78.9375 191.058 78.9375C190.791 78.9375 190.552 78.9957 190.342 79.1122C190.135 79.2259 189.97 79.3849 189.848 79.5895C189.728 79.794 189.669 80.0298 189.669 80.2969V84H187.853Z" fill="black"/>
<path d="M311.807 78.0938C311.748 77.8864 311.664 77.7031 311.556 77.544C311.448 77.3821 311.316 77.2457 311.159 77.1349C311.006 77.0213 310.83 76.9347 310.631 76.875C310.435 76.8153 310.218 76.7855 309.979 76.7855C309.533 76.7855 309.141 76.8963 308.803 77.1179C308.468 77.3395 308.206 77.6619 308.019 78.0852C307.831 78.5057 307.738 79.0199 307.738 79.6278C307.738 80.2358 307.83 80.7528 308.015 81.179C308.199 81.6051 308.461 81.9304 308.799 82.1548C309.137 82.3764 309.536 82.4872 309.996 82.4872C310.414 82.4872 310.77 82.4134 311.066 82.2656C311.364 82.1151 311.591 81.9034 311.748 81.6307C311.907 81.358 311.986 81.0355 311.986 80.6634L312.361 80.7188H310.111V79.3295H313.763V80.429C313.763 81.196 313.601 81.8551 313.277 82.4062C312.953 82.9545 312.507 83.3778 311.939 83.6761C311.371 83.9716 310.721 84.1193 309.988 84.1193C309.169 84.1193 308.451 83.9389 307.831 83.5781C307.212 83.2145 306.729 82.6989 306.382 82.0312C306.039 81.3608 305.867 80.5653 305.867 79.6449C305.867 78.9375 305.969 78.3068 306.174 77.7528C306.381 77.196 306.671 76.7244 307.043 76.3381C307.415 75.9517 307.848 75.6577 308.343 75.456C308.837 75.2543 309.373 75.1534 309.949 75.1534C310.444 75.1534 310.904 75.2259 311.33 75.3707C311.756 75.5128 312.134 75.7145 312.463 75.9759C312.796 76.2372 313.067 76.5483 313.277 76.9091C313.488 77.267 313.623 77.6619 313.682 78.0938H311.807ZM318.072 84.1278C317.411 84.1278 316.838 83.9872 316.355 83.706C315.875 83.4219 315.504 83.027 315.243 82.5213C314.982 82.0128 314.851 81.4233 314.851 80.7528C314.851 80.0767 314.982 79.4858 315.243 78.9801C315.504 78.4716 315.875 78.0767 316.355 77.7955C316.838 77.5114 317.411 77.3693 318.072 77.3693C318.734 77.3693 319.305 77.5114 319.786 77.7955C320.268 78.0767 320.641 78.4716 320.902 78.9801C321.163 79.4858 321.294 80.0767 321.294 80.7528C321.294 81.4233 321.163 82.0128 320.902 82.5213C320.641 83.027 320.268 83.4219 319.786 83.706C319.305 83.9872 318.734 84.1278 318.072 84.1278ZM318.081 82.7216C318.382 82.7216 318.634 82.6364 318.835 82.4659C319.037 82.2926 319.189 82.0568 319.291 81.7585C319.396 81.4602 319.449 81.1207 319.449 80.7401C319.449 80.3594 319.396 80.0199 319.291 79.7216C319.189 79.4233 319.037 79.1875 318.835 79.0142C318.634 78.8409 318.382 78.7543 318.081 78.7543C317.777 78.7543 317.521 78.8409 317.314 79.0142C317.109 79.1875 316.955 79.4233 316.849 79.7216C316.747 80.0199 316.696 80.3594 316.696 80.7401C316.696 81.1207 316.747 81.4602 316.849 81.7585C316.955 82.0568 317.109 82.2926 317.314 82.4659C317.521 82.6364 317.777 82.7216 318.081 82.7216ZM325.432 84.1278C324.77 84.1278 324.197 83.9872 323.714 83.706C323.234 83.4219 322.864 83.027 322.602 82.5213C322.341 82.0128 322.21 81.4233 322.21 80.7528C322.21 80.0767 322.341 79.4858 322.602 78.9801C322.864 78.4716 323.234 78.0767 323.714 77.7955C324.197 77.5114 324.77 77.3693 325.432 77.3693C326.094 77.3693 326.665 77.5114 327.145 77.7955C327.628 78.0767 328 78.4716 328.261 78.9801C328.523 79.4858 328.653 80.0767 328.653 80.7528C328.653 81.4233 328.523 82.0128 328.261 82.5213C328 83.027 327.628 83.4219 327.145 83.706C326.665 83.9872 326.094 84.1278 325.432 84.1278ZM325.44 82.7216C325.741 82.7216 325.993 82.6364 326.195 82.4659C326.396 82.2926 326.548 82.0568 326.651 81.7585C326.756 81.4602 326.808 81.1207 326.808 80.7401C326.808 80.3594 326.756 80.0199 326.651 79.7216C326.548 79.4233 326.396 79.1875 326.195 79.0142C325.993 78.8409 325.741 78.7543 325.44 78.7543C325.136 78.7543 324.881 78.8409 324.673 79.0142C324.469 79.1875 324.314 79.4233 324.209 79.7216C324.107 80.0199 324.055 80.3594 324.055 80.7401C324.055 81.1207 324.107 81.4602 324.209 81.7585C324.314 82.0568 324.469 82.2926 324.673 82.4659C324.881 82.6364 325.136 82.7216 325.44 82.7216ZM332.246 84.1065C331.749 84.1065 331.298 83.9787 330.895 83.723C330.494 83.4645 330.176 83.0852 329.94 82.5852C329.707 82.0824 329.591 81.4659 329.591 80.7358C329.591 79.9858 329.712 79.3622 329.953 78.8651C330.195 78.3651 330.516 77.9915 330.916 77.7443C331.32 77.4943 331.761 77.3693 332.241 77.3693C332.608 77.3693 332.913 77.4318 333.158 77.5568C333.405 77.679 333.604 77.8324 333.754 78.017C333.908 78.1989 334.024 78.3778 334.104 78.554H334.159V75.2727H335.97V84H334.18V82.9517H334.104C334.018 83.1335 333.898 83.3139 333.741 83.4929C333.588 83.669 333.388 83.8153 333.141 83.9318C332.896 84.0483 332.598 84.1065 332.246 84.1065ZM332.821 82.6619C333.114 82.6619 333.361 82.5824 333.562 82.4233C333.767 82.2614 333.923 82.0355 334.031 81.7457C334.142 81.456 334.197 81.1165 334.197 80.7273C334.197 80.3381 334.143 80 334.036 79.7131C333.928 79.4261 333.771 79.2045 333.567 79.0483C333.362 78.892 333.114 78.8139 332.821 78.8139C332.523 78.8139 332.271 78.8949 332.067 79.0568C331.862 79.2187 331.707 79.4432 331.602 79.7301C331.497 80.017 331.445 80.3494 331.445 80.7273C331.445 81.108 331.497 81.4446 331.602 81.7372C331.71 82.027 331.865 82.2543 332.067 82.419C332.271 82.581 332.523 82.6619 332.821 82.6619Z" fill="black"/>
<path d="M401.729 182V173.273H407.61V174.794H403.574V176.874H407.307V178.395H403.574V180.479H407.627V182H401.729ZM410.56 175.455L411.762 177.743L412.993 175.455H414.855L412.959 178.727L414.906 182H413.053L411.762 179.737L410.492 182H408.617L410.56 178.727L408.685 175.455H410.56ZM418.656 182.128C417.986 182.128 417.409 181.986 416.926 181.702C416.446 181.415 416.077 181.017 415.818 180.509C415.563 180 415.435 179.415 415.435 178.753C415.435 178.082 415.564 177.494 415.823 176.989C416.084 176.48 416.455 176.084 416.935 175.8C417.415 175.513 417.986 175.369 418.648 175.369C419.219 175.369 419.719 175.473 420.148 175.68C420.577 175.888 420.916 176.179 421.166 176.554C421.416 176.929 421.554 177.369 421.58 177.875H419.867C419.818 177.548 419.691 177.286 419.483 177.087C419.279 176.885 419.01 176.784 418.678 176.784C418.396 176.784 418.151 176.861 417.941 177.014C417.733 177.165 417.571 177.385 417.455 177.675C417.338 177.964 417.28 178.315 417.28 178.727C417.28 179.145 417.337 179.5 417.45 179.793C417.567 180.085 417.73 180.308 417.941 180.462C418.151 180.615 418.396 180.692 418.678 180.692C418.885 180.692 419.071 180.649 419.236 180.564C419.404 180.479 419.541 180.355 419.649 180.193C419.76 180.028 419.833 179.831 419.867 179.601H421.58C421.551 180.101 421.415 180.541 421.171 180.922C420.929 181.3 420.595 181.595 420.169 181.808C419.743 182.021 419.239 182.128 418.656 182.128ZM425.725 182.128C425.052 182.128 424.472 181.991 423.986 181.719C423.503 181.443 423.131 181.054 422.87 180.551C422.608 180.045 422.478 179.447 422.478 178.757C422.478 178.084 422.608 177.493 422.87 176.984C423.131 176.476 423.499 176.08 423.974 175.795C424.451 175.511 425.01 175.369 425.653 175.369C426.084 175.369 426.486 175.439 426.858 175.578C427.233 175.714 427.56 175.92 427.839 176.196C428.12 176.472 428.339 176.818 428.495 177.236C428.651 177.651 428.729 178.136 428.729 178.693V179.192H423.202V178.067H427.02C427.02 177.805 426.964 177.574 426.85 177.372C426.736 177.17 426.579 177.013 426.377 176.899C426.178 176.783 425.947 176.724 425.682 176.724C425.407 176.724 425.162 176.788 424.949 176.916C424.739 177.041 424.574 177.21 424.455 177.423C424.336 177.634 424.275 177.868 424.272 178.126V179.196C424.272 179.52 424.331 179.8 424.451 180.036C424.573 180.271 424.745 180.453 424.966 180.581C425.188 180.709 425.451 180.773 425.755 180.773C425.956 180.773 426.141 180.744 426.309 180.688C426.476 180.631 426.62 180.545 426.739 180.432C426.858 180.318 426.949 180.179 427.012 180.014L428.691 180.125C428.606 180.528 428.431 180.881 428.167 181.182C427.905 181.48 427.567 181.713 427.153 181.881C426.741 182.045 426.265 182.128 425.725 182.128ZM431.729 173.273V182H429.914V173.273H431.729ZM434.999 173.273V182H433.183V173.273H434.999ZM439.436 182.128C438.763 182.128 438.183 181.991 437.697 181.719C437.214 181.443 436.842 181.054 436.581 180.551C436.319 180.045 436.189 179.447 436.189 178.757C436.189 178.084 436.319 177.493 436.581 176.984C436.842 176.476 437.21 176.08 437.684 175.795C438.162 175.511 438.721 175.369 439.363 175.369C439.795 175.369 440.197 175.439 440.569 175.578C440.944 175.714 441.271 175.92 441.55 176.196C441.831 176.472 442.05 176.818 442.206 177.236C442.362 177.651 442.44 178.136 442.44 178.693V179.192H436.913V178.067H440.731C440.731 177.805 440.675 177.574 440.561 177.372C440.447 177.17 440.29 177.013 440.088 176.899C439.889 176.783 439.657 176.724 439.393 176.724C439.118 176.724 438.873 176.788 438.66 176.916C438.45 177.041 438.285 177.21 438.166 177.423C438.047 177.634 437.986 177.868 437.983 178.126V179.196C437.983 179.52 438.042 179.8 438.162 180.036C438.284 180.271 438.456 180.453 438.677 180.581C438.899 180.709 439.162 180.773 439.466 180.773C439.667 180.773 439.852 180.744 440.02 180.688C440.187 180.631 440.331 180.545 440.45 180.432C440.569 180.318 440.66 180.179 440.723 180.014L442.402 180.125C442.317 180.528 442.142 180.881 441.878 181.182C441.616 181.48 441.278 181.713 440.863 181.881C440.452 182.045 439.976 182.128 439.436 182.128ZM445.44 178.216V182H443.625V175.455H445.355V176.609H445.432C445.577 176.229 445.819 175.928 446.16 175.706C446.501 175.482 446.915 175.369 447.4 175.369C447.855 175.369 448.251 175.469 448.589 175.668C448.927 175.866 449.19 176.151 449.378 176.52C449.565 176.886 449.659 177.324 449.659 177.832V182H447.844V178.156C447.846 177.756 447.744 177.443 447.537 177.219C447.329 176.991 447.044 176.878 446.68 176.878C446.436 176.878 446.22 176.93 446.032 177.036C445.848 177.141 445.703 177.294 445.598 177.496C445.496 177.695 445.443 177.935 445.44 178.216ZM454.571 175.455V176.818H450.629V175.455H454.571ZM451.524 173.886H453.34V179.989C453.34 180.156 453.365 180.287 453.416 180.381C453.468 180.472 453.539 180.536 453.629 180.572C453.723 180.609 453.831 180.628 453.953 180.628C454.039 180.628 454.124 180.621 454.209 180.607C454.294 180.589 454.36 180.577 454.405 180.568L454.691 181.919C454.6 181.947 454.472 181.98 454.307 182.017C454.142 182.057 453.942 182.081 453.706 182.089C453.269 182.107 452.885 182.048 452.556 181.915C452.229 181.781 451.975 181.574 451.793 181.293C451.611 181.011 451.521 180.656 451.524 180.227V173.886Z" fill="black"/>
</svg>
